<?xml version="1.0" encoding="UTF-8" standalone="no"?>
<svg
   xmlns:dc="http://purl.org/dc/elements/1.1/"
   xmlns:cc="http://creativecommons.org/ns#"
   xmlns:rdf="http://www.w3.org/1999/02/22-rdf-syntax-ns#"
   xmlns:svg="http://www.w3.org/2000/svg"
   xmlns="http://www.w3.org/2000/svg"
   xmlns:sodipodi="http://sodipodi.sourceforge.net/DTD/sodipodi-0.dtd"
   xmlns:inkscape="http://www.inkscape.org/namespaces/inkscape"
   viewBox="0 0 475 210"
   version="1.1"
   id="svg4585"
   inkscape:version="0.91 r13725"
   sodipodi:docname="apimon.svg">
  <sodipodi:namedview
     pagecolor="#ffffff"
     bordercolor="#666666"
     borderopacity="1"
     objecttolerance="10"
     gridtolerance="10"
     guidetolerance="10"
     inkscape:pageopacity="0"
     inkscape:pageshadow="2"
     inkscape:window-width="1920"
     inkscape:window-height="1018"
     id="namedview4159"
     showgrid="false"
     inkscape:zoom="1.9411942"
     inkscape:cx="162.07165"
     inkscape:cy="137.98204"
     inkscape:window-x="-8"
     inkscape:window-y="-8"
     inkscape:window-maximized="1"
     inkscape:current-layer="svg4585" />
  <metadata
     id="metadata4589">
    <rdf:RDF>
      <cc:Work
         rdf:about="">
        <dc:format>image/svg+xml</dc:format>
        <dc:type
           rdf:resource="http://purl.org/dc/dcmitype/StillImage" />
        <dc:title>integration-tile</dc:title>
      </cc:Work>
    </rdf:RDF>
  </metadata>
  <defs
     id="defs4559">
    <style
       id="style4557">.a{fill:#c73a63;}.b{fill:#4b4b4b;}.c{fill:#4a4a4a;}</style>
  </defs>
  <title
     id="title4561">integration-tile</title>
  <path
     style="fill:none;fill-rule:evenodd;stroke:#5599ff;stroke-width:3;stroke-linecap:butt;stroke-linejoin:round;stroke-miterlimit:4;stroke-dasharray:none;stroke-opacity:1"
     d="m 122.07154,115.34785 66.29602,0 7.64954,-29.107358 5.82821,53.546778 12.02071,-69.574384 9.83513,61.560574 9.28873,-16.42561 80.13802,0"
     id="path4165"
     inkscape:connector-curvature="0"
     sodipodi:nodetypes="cccccccc" />
  <g
     style="font-style:normal;font-weight:normal;font-size:40px;line-height:125%;font-family:sans-serif;letter-spacing:0px;word-spacing:0px;fill:#b3b3b3;fill-opacity:1;stroke:none;stroke-width:1px;stroke-linecap:butt;stroke-linejoin:miter;stroke-opacity:1"
     id="text4161">
    <path
       d="m 150.9292,109.34785 -7.40234,0 -1.71875,-4.64844 -9.57032,0 -1.83593,4.64844 -7.32422,0 10.2539,-26.660159 7.5586,0 10.03906,26.660159 z m -10.99609,-9.921878 -2.8711,-8.496094 -2.91015,8.496094 5.78125,0 z"
       style="font-style:normal;font-variant:normal;font-weight:bold;font-stretch:normal;font-size:40px;line-height:125%;font-family:Aharoni;-inkscape-font-specification:'Aharoni, Bold';text-align:start;writing-mode:lr-tb;text-anchor:start;fill:#b3b3b3"
       id="path4284" />
    <path
       d="m 174.32764,91.476753 q 0,3.613281 -1.69922,5.976563 -2.20703,3.066404 -7.32422,3.066404 l -4.33594,0 0,8.82813 -6.93359,0 0,-26.660159 11.03515,0 q 4.70704,0 7.14844,2.753906 2.10938,2.363281 2.10938,6.035156 z m -7.20703,0.07813 q 0,-1.484375 -0.87891,-2.363281 -0.85938,-0.898438 -2.94922,-0.898438 l -2.32422,0 0,6.621094 2.30469,0 q 2.24609,0 3.08594,-0.976562 0.76172,-0.878907 0.76172,-2.382813 z"
       style="font-style:normal;font-variant:normal;font-weight:bold;font-stretch:normal;font-size:40px;line-height:125%;font-family:Aharoni;-inkscape-font-specification:'Aharoni, Bold';text-align:start;writing-mode:lr-tb;text-anchor:start;fill:#b3b3b3"
       id="path4286" />
    <path
       d="m 184.95264,109.34785 -6.9336,0 0,-26.660159 6.9336,0 0,26.660159 z"
       style="font-style:normal;font-variant:normal;font-weight:bold;font-stretch:normal;font-size:40px;line-height:125%;font-family:Aharoni;-inkscape-font-specification:'Aharoni, Bold';text-align:start;writing-mode:lr-tb;text-anchor:start;fill:#b3b3b3"
       id="path4288" />
  </g>
  <g
     style="font-style:normal;font-weight:normal;font-size:40px;line-height:125%;font-family:sans-serif;letter-spacing:0px;word-spacing:0px;fill:#1a1a1a;fill-opacity:1;stroke:none;stroke-width:1px;stroke-linecap:butt;stroke-linejoin:miter;stroke-opacity:1"
     id="text4161-7">
    <path
       d="m 264.31796,108.66426 -6.40625,0 0,-8.964843 q 0,-2.34375 -0.48828,-3.203125 -0.72265,-1.269531 -2.16797,-1.269531 -1.60156,0 -2.46093,1.386719 -0.60547,0.976562 -0.60547,3.085937 l 0,8.964843 -6.40625,0 0,-8.964843 q 0,-2.34375 -0.39063,-3.046875 -0.78125,-1.40625 -2.40234,-1.40625 -1.50391,0 -2.34375,1.210938 -0.3125,0.429687 -0.44922,1.191406 -0.13672,0.742187 -0.13672,2.050781 l 0,8.964843 -6.40625,0 0,-18.124999 6.40625,0 0,2.226562 q 1.13281,-1.09375 2.07031,-1.601562 1.69922,-0.917969 3.78907,-0.917969 2.67578,0 4.45312,1.386719 0.89844,0.703125 1.71875,1.992187 0.74219,-1.210937 1.66016,-1.914062 1.93359,-1.484375 4.41406,-1.484375 2.03125,0 3.61328,0.976562 1.69922,1.074219 2.22656,2.910157 0.3125,1.113281 0.3125,2.773437 l 0,11.777343 z"
       style="font-style:normal;font-variant:normal;font-weight:bold;font-stretch:normal;font-size:40px;line-height:125%;font-family:Aharoni;-inkscape-font-specification:'Aharoni, Bold';text-align:start;writing-mode:lr-tb;text-anchor:start;fill:#1a1a1a"
       id="path4291" />
    <path
       d="m 289.82578,99.601761 q 0,3.769529 -2.48047,6.464839 -3.00782,3.28125 -8.41797,3.28125 -5.42969,0 -8.4375,-3.28125 -2.48047,-2.69531 -2.48047,-6.621089 0,-3.535156 2.5,-6.269531 3.02734,-3.300782 8.61328,-3.300782 5.13672,0 8.20313,3.300782 2.5,2.695312 2.5,6.425781 z m -6.66016,0 q 0,-1.757813 -1.25,-2.96875 -1.23047,-1.230469 -2.98828,-1.230469 -1.99219,0 -3.24219,1.484375 -1.01562,1.191406 -1.01562,2.714844 0,1.542969 1.01562,2.734379 1.25,1.48437 3.24219,1.48437 1.77734,0 3.00781,-1.21094 1.23047,-1.23047 1.23047,-3.007809 z"
       style="font-style:normal;font-variant:normal;font-weight:bold;font-stretch:normal;font-size:40px;line-height:125%;font-family:Aharoni;-inkscape-font-specification:'Aharoni, Bold';text-align:start;writing-mode:lr-tb;text-anchor:start;fill:#1a1a1a"
       id="path4293" />
    <path
       d="m 312.61874,108.66426 -6.40625,0 0,-9.179687 q 0,-2.402343 -0.54687,-3.183593 -0.80078,-1.152344 -2.40234,-1.152344 -1.46485,0 -2.46094,0.996094 -0.89844,0.898437 -0.89844,2.8125 l 0,9.70703 -6.40625,0 0,-18.124999 6.40625,0 0,2.285156 q 1.11328,-1.289062 2.05078,-1.816406 1.52344,-0.859375 3.8086,-0.859375 2.92968,0 4.76562,1.582031 2.08984,1.796875 2.08984,5.390625 l 0,11.542968 z"
       style="font-style:normal;font-variant:normal;font-weight:bold;font-stretch:normal;font-size:40px;line-height:125%;font-family:Aharoni;-inkscape-font-specification:'Aharoni, Bold';text-align:start;writing-mode:lr-tb;text-anchor:start;fill:#1a1a1a"
       id="path4295" />
  </g>
  <g
     style="fill:#000000"
     id="g4228"
     transform="matrix(0.43991093,0,0,0.43991093,313.24762,76.122622)">
    <g
       id="g4196">
      <polygon
         id="polygon4198"
         points="27.687,83.5 15.736,70.689 15.736,70.689 15.736,83.502 27.688,83.502 "
         style="fill:none" />
      <polygon
         id="polygon4200"
         points="32.538,88.699 32.54,88.702 38.118,83.502 68.736,83.502 68.736,54.96 38.117,83.5 "
         style="fill:none" />
      <polygon
         id="polygon4202"
         points="64.436,30.501 15.736,30.501 15.736,41.15 15.736,41.15 16.037,40.87 33.376,59.46 "
         style="fill:none" />
      <g
         id="g4204">
        <g
           id="g4206">
          <polygon
             id="polygon4208"
             points="15.736,41.15 15.736,30.501 64.436,30.501 64.438,30.5 74.085,21.501 6.736,21.501 6.736,49.541 6.736,49.54 " />
        </g>
      </g>
      <g
         id="g4210">
        <g
           id="g4212">
          <polygon
             id="polygon4214"
             points="38.118,83.502 32.54,88.702 32.538,88.699 32.537,88.7 27.688,83.502 15.736,83.502 15.736,70.689 6.736,61.04 6.736,61.039 6.736,92.502 77.736,92.502 77.736,46.565 72.736,51.227 68.736,54.96 68.736,83.502 " />
        </g>
      </g>
      <g
         id="g4216"
         style="fill:#00df00;fill-opacity:1">
        <g
           id="g4218"
           style="fill:#00df00;fill-opacity:1">
          <polygon
             id="polygon4220"
             points="32.702,84.502 90.202,30.902 80.092,20.062 33.242,63.742 15.902,45.152 5.252,55.082 "
             style="fill:#00df00;fill-opacity:1" />
        </g>
      </g>
    </g>
  </g>
</svg>
